<?xml version="1.0" encoding="utf-8"?>
<svg version="1.1" xmlns="http://www.w3.org/2000/svg" xmlns:xlink="http://www.w3.org/1999/xlink" x="0px" y="0px"
	 viewBox="0 0 72 72" style="enable-background:new 0 0 72 72;" xml:space="preserve">
<style type="text/css">
	.st0{fill:#58DB93;}
	.st1{fill:#0D8D47;}
</style>
<g>
	<path class="st0" d="M7.1,15.5c-4,6.3-5.9,13.7-5.5,21.1c1.2,25.2,10.6,33.9,33.9,33.9c25,0,35-14,35-36s-4-33-33-33
		C21,1.5,12,8,7.1,15.5z"/>
	<path class="st1" d="M13.7,34.7l-1.1-0.2c-0.1,0-0.2-0.1-0.2-0.2l-0.5-1.1C11.7,33,11.5,33,11.4,33c-0.1,0-0.1,0.1-0.2,0.2
		l-0.5,1.1c0,0.1-0.1,0.2-0.2,0.2l-1.1,0.2c-0.2,0-0.3,0.2-0.3,0.4c0,0.1,0,0.1,0.1,0.2l0.8,0.8c0.1,0.1,0.1,0.2,0.1,0.3l-0.2,1.2
		c0,0.2,0.1,0.4,0.3,0.4c0.1,0,0.2,0,0.2,0l1-0.6c0.1-0.1,0.2-0.1,0.3,0l1,0.6c0.2,0.1,0.4,0,0.5-0.1c0-0.1,0-0.1,0-0.2L13,36.4
		c0-0.1,0-0.2,0.1-0.3l0.8-0.8c0.1-0.1,0.1-0.4,0-0.5C13.9,34.7,13.8,34.7,13.7,34.7z"/>
	<path class="st1" d="M62.9,35.2c0.1-0.1,0.1-0.4,0-0.5c-0.1,0-0.1-0.1-0.2-0.1l-1.2-0.2c-0.1,0-0.2-0.1-0.2-0.2l-0.5-1.1
		C60.7,33,60.5,33,60.4,33c-0.1,0-0.1,0.1-0.2,0.2l-0.5,1.1c0,0.1-0.1,0.2-0.2,0.2l-1.2,0.2c-0.2,0-0.3,0.2-0.3,0.4
		c0,0.1,0,0.1,0.1,0.2l0.8,0.8c0.1,0.1,0.1,0.2,0.1,0.3l-0.2,1.2c0,0.2,0.1,0.4,0.3,0.4c0.1,0,0.2,0,0.2,0l1-0.6
		c0.1-0.1,0.2-0.1,0.3,0l1,0.6c0.2,0.1,0.4,0,0.5-0.1c0-0.1,0-0.1,0-0.2L62,36.4c0-0.1,0-0.2,0.1-0.3L62.9,35.2z"/>
	<path class="st1" d="M36,16c-11,0-20,9-20,20s9,20,20,20s20-9,20-20S47,16,36,16z M36,54c-9.9,0-18-8.1-18-18s8.1-18,18-18
		s18,8.1,18,18S45.9,54,36,54z"/>
	<path class="st1" d="M27.9,27c0.2,0,0.5-0.1,0.6-0.2c2.1-1.7,4.8-2.6,7.5-2.6c2.7,0,5.3,0.9,7.4,2.6c0.4,0.3,1.1,0.3,1.4-0.2
		c0.3-0.4,0.3-1.1-0.2-1.4c-2.5-2-5.5-3-8.6-3c-3.2,0-6.3,1.1-8.8,3.1c-0.4,0.3-0.5,1-0.2,1.4c0,0,0,0,0,0
		C27.3,26.9,27.6,27,27.9,27z"/>
	<path class="st1" d="M43.4,45.4C41.3,47.1,38.7,48,36,48c-2.7,0-5.4-0.9-7.5-2.7c-0.4-0.3-1.1-0.3-1.4,0.2
		c-0.3,0.4-0.3,1.1,0.2,1.4l0,0C32.3,51,39.5,51,44.6,47c0.4-0.3,0.5-1,0.2-1.4C44.4,45.2,43.8,45.1,43.4,45.4L43.4,45.4z"/>
	<path class="st1" d="M25.4,31.1c-0.4-0.2-0.8-0.1-1.1,0.2l-2,2c-0.4,0.4-0.4,1,0,1.4c0.4,0.4,1,0.4,1.4,0l0,0l0.3-0.3V40
		c0,0.6,0.4,1,1,1s1-0.4,1-1v-8C26,31.6,25.8,31.2,25.4,31.1z"/>
	<path class="st1" d="M27,34v4c0,1.7,1.3,3,3,3s3-1.3,3-3v-4c0-1.7-1.3-3-3-3S27,32.3,27,34z M31,34v4c0,0.6-0.4,1-1,1s-1-0.4-1-1
		v-4c0-0.6,0.4-1,1-1S31,33.4,31,34z"/>
	<path class="st1" d="M34,34v4c0,1.7,1.3,3,3,3s3-1.3,3-3v-4c0-1.7-1.3-3-3-3S34,32.3,34,34z M38,34v4c0,0.6-0.4,1-1,1s-1-0.4-1-1
		v-4c0-0.6,0.4-1,1-1S38,33.4,38,34z"/>
	<path class="st1" d="M47.2,32.4l-5,6c-0.4,0.4-0.3,1.1,0.1,1.4c0,0,0,0,0,0c0.2,0.1,0.4,0.2,0.6,0.2c0.3,0,0.6-0.1,0.8-0.4l5-6
		c0.4-0.4,0.3-1.1-0.1-1.4S47.6,31.9,47.2,32.4z"/>
	<path class="st1" d="M43.5,32c-0.8,0-1.5,0.7-1.5,1.5s0.7,1.5,1.5,1.5s1.5-0.7,1.5-1.5S44.3,32,43.5,32z M43.5,34
		c-0.3,0-0.5-0.2-0.5-0.5s0.2-0.5,0.5-0.5s0.5,0.2,0.5,0.5S43.8,34,43.5,34z"/>
	<path class="st1" d="M47.5,37c-0.8,0-1.5,0.7-1.5,1.5s0.7,1.5,1.5,1.5s1.5-0.7,1.5-1.5S48.3,37,47.5,37z M47.5,39
		c-0.3,0-0.5-0.2-0.5-0.5s0.2-0.5,0.5-0.5s0.5,0.2,0.5,0.5S47.8,39,47.5,39z"/>
	<path class="st1" d="M16,51.2l0.9,1.2c-0.5,0.2-1.1,0.1-1.4-0.4c-0.5-0.5-0.4-1.4,0.1-1.8c0.1-0.1,0.1-0.1,0.2-0.2
		c0.5-0.5,1.3-0.5,1.8,0c0,0,0.1,0.1,0.1,0.1c0.3,0.3,0.3,0.7,0.2,1.1l0.8,1c0.6-0.8,0.6-2-0.1-2.8c-0.7-1.1-2.2-1.4-3.3-0.6
		c-0.1,0-0.1,0.1-0.2,0.1c-1.1,0.8-1.3,2.4-0.4,3.5c0.7,0.8,1.8,1.2,2.8,0.8l0.9-0.7l-1.6-2.1L16,51.2z"/>
	<path class="st1" d="M22.9,53.8l-1.8,2.3c-0.3,0.4-0.8,0.5-1.2,0.3c-0.4-0.3-0.5-0.8-0.3-1.2c0-0.1,0.1-0.1,0.1-0.2l1.8-2.3
		L20.7,52l-1.8,2.3c-0.7,0.8-0.7,2,0.1,2.7c0.1,0.1,0.2,0.1,0.2,0.2c0.8,0.7,2,0.7,2.7-0.1c0.1-0.1,0.1-0.1,0.2-0.2l1.8-2.3
		L22.9,53.8z"/>
	<path class="st1" d="M22.5,59.5l1.1,0.5l0.6-0.7l1.7,0.8L25.8,61l1.1,0.5l0.4-5.2l-1.3-0.6L22.5,59.5z M26,59.2l-1.1-0.5l1.3-1.4
		L26,59.2z"/>
	<path class="st1" d="M31.8,57.7l-2-0.4l-1,4.8l1.2,0.2l0.4-1.8l0.3,0.1l0.6,2l1.3,0.3l-0.7-2.1c0.7,0,1.2-0.5,1.3-1.2
		C33.4,58.7,33,57.9,31.8,57.7z M32,59.4c0,0.3-0.3,0.5-0.6,0.5c0,0-0.1,0-0.1,0l-0.7-0.2l0.2-1.2l0.7,0.1c0.3,0,0.6,0.3,0.5,0.6
		C32.1,59.3,32.1,59.3,32,59.4z"/>
	<path class="st1" d="M36,58.1l-1.6,5h1.2l0.3-0.9l1.8-0.1l0.3,0.8h1.3l-1.9-5L36,58.1z M36.2,61.2l0.5-1.8l0.7,1.8L36.2,61.2z"/>
	<polygon class="st1" points="43.1,57 43.9,59.9 41.2,57.5 40,57.8 41.4,62.6 42.5,62.2 41.7,59.3 44.4,61.7 45.6,61.3 44.2,56.6 	
		"/>
	<polygon class="st1" points="48.8,55.2 48.3,54.4 45,56.2 45.5,57.1 46.6,56.5 48.6,59.9 49.6,59.3 47.7,55.9 	"/>
	<polygon class="st1" points="52.6,56.1 51.9,55.3 53.1,54.2 52.5,53.5 51.3,54.6 50.6,53.8 52,52.6 51.4,51.9 49.1,53.8 52.3,57.6 
		54.6,55.7 54,54.9 	"/>
	<polygon class="st1" points="56,52.7 55.2,52 56.2,50.7 55.5,50.1 54.5,51.4 53.7,50.8 54.8,49.3 54.1,48.7 52.2,51.1 56,54.2 
		57.9,51.8 57.2,51.2 	"/>
	<polygon class="st1" points="17.7,23.6 15.4,21.8 18.4,22.8 19,22 17.4,19.3 19.7,21.2 20.4,20.2 16.6,17.2 15.7,18.3 17.5,21.5 
		14,20.4 13.1,21.5 17,24.6 	"/>
	<path class="st1" d="M22.9,18.4c1.1-0.8,1.3-2.4,0.5-3.5c-0.8-1.1-2.4-1.3-3.5-0.5c-1.1,0.8-1.3,2.4-0.5,3.5
		C20.1,19,21.7,19.3,22.9,18.4C22.8,18.5,22.8,18.4,22.9,18.4z M20.5,15.2c0.6-0.4,1.4-0.3,1.8,0.2c0,0,0.1,0.1,0.1,0.1
		c0.5,0.5,0.5,1.3-0.1,1.8c0,0-0.1,0.1-0.1,0.1c-0.5,0.4-1.3,0.3-1.8-0.2c0,0-0.1-0.1-0.1-0.2c-0.5-0.5-0.5-1.3,0-1.8
		C20.4,15.3,20.4,15.3,20.5,15.2z"/>
	<polygon class="st1" points="26.5,16.1 25.3,13.4 28.3,15.4 29.4,14.9 27.5,10.4 26.4,10.8 27.6,13.6 24.5,11.6 23.4,12.1 
		25.4,16.6 	"/>
	<polygon class="st1" points="33.1,14.1 32.9,13.2 31.1,13.6 30.9,12.5 32.5,12.2 32.3,11.3 30.7,11.6 30.5,10.6 32.3,10.3 
		32.1,9.3 29.1,9.9 30.1,14.7 	"/>
	<polygon class="st1" points="35.1,14 36.3,14 36.3,12.4 37.9,9.1 36.6,9.1 35.7,11.1 34.7,9.1 33.3,9.1 35.1,12.4 	"/>
	<path class="st1" d="M44,14c0.2-0.5-0.1-1.1-0.6-1.4c0.5,0,1-0.4,1.1-0.9c0.2-0.8-0.2-1.4-1.2-1.6l-2.1-0.6l-1.3,4.8l2.2,0.6
		C43.1,15.1,43.8,14.8,44,14z M42.1,10.8l0.8,0.2c0.4,0.1,0.5,0.3,0.5,0.7S43,12.1,42.6,12l-0.8-0.2L42.1,10.8z M41.6,12.6l0.8,0.2
		c0.4,0.1,0.6,0.4,0.5,0.7s-0.4,0.5-0.7,0.4l-0.8-0.2L41.6,12.6z"/>
	<path class="st1" d="M45.1,15.9l0.7-0.6l1.6,0.8L47.2,17l1.1,0.6l0.7-5.2l-1.2-0.6L44,15.3L45.1,15.9z M47.8,13.3l-0.3,1.9
		l-1.1-0.6L47.8,13.3z"/>
	<path class="st1" d="M53.3,19.6l-1-0.9c-0.4,0.2-0.9,0.1-1.2-0.2c-0.5-0.5-0.6-1.3-0.1-1.8c0,0,0.1-0.1,0.1-0.1
		c0.4-0.6,1.2-0.7,1.7-0.3c0,0,0.1,0.1,0.1,0.1c0.3,0.3,0.5,0.7,0.4,1.1l1,0.9c0.5-1,0.2-2.2-0.6-2.8c-1.1-0.9-2.6-0.7-3.5,0.4
		c-0.8,1-0.7,2.5,0.2,3.4C51.2,20.1,52.4,20.2,53.3,19.6z"/>
	<polygon class="st1" points="53.3,22.3 55,21.1 54.2,23.7 55.1,24.9 56,21.8 59,21.9 58.2,20.8 55.5,20.7 57.2,19.4 56.5,18.5 
		52.6,21.4 	"/>
</g>
</svg>
